#!OML:ASF I:\Actors\actors\Patient Classification 1\Patient 1\Session 1\Subject1.ASF
:FULLY-SPECIFIED
:DEGREES
1640
root 0.800101 17.4435 9.87237 10.9067 -2.17582 -9.71084
lowerback 0.699987 1.95073 3.31427
upperback -9.93884 3.15446 3.18238
thorax -11.0161 1.42368 1.24981
lowerneck -10.3359 -3.92424 -2.03039
upperneck 21.2156 -5.54223 2.04417
head 8.40576 -2.58671 0.450646
rclavicle -1.04362e-014 2.18663e-014
rhumerus -35.7943 49.517 -114.034
rradius 100.358
rwrist 29.0746
rhand -8.31215 -33.6239
rfingers 7.12502
rthumb 17.6085 -782.846
lclavicle -1.04362e-014 2.18663e-014
lhumerus -55.0369 -6.62464 102.979
lradius 117.501
lwrist 75.6802
lhand -26.0538 11.6437
lfingers 7.12502
lthumb 0.493804 41.6228
rfemur -2.12766 25.1161 25.974
rtibia 1.33125
rfoot -13.9961 -27.559
rtoes 1.62705
lfemur 9.54131 -48.8235 -14.4066
ltibia -4.78992
lfoot -31.2731 56.0738
ltoes 13.265
1641
root 0.801705 17.4363 9.87235 10.9729 -2.37516 -9.64801
lowerback 0.429464 1.97518 3.6655
upperback -9.91454 3.19239 3.21081
thorax -10.8097 1.41464 1.09072
lowerneck -9.93852 -3.55315 -1.62792
upperneck 21.1376 -4.74683 0.436816
head 8.23606 -2.34145 -0.0576533
rclavicle 1.26725e-014 8.74653e-015
rhumerus -35.6349 49.5083 -113.926
rradius 100.406
rwrist 28.8938
rhand -7.65492 -33.6871
rfingers 7.12502
rthumb 18.2408 -782.852
lclavicle 1.26725e-014 8.74653e-015
lhumerus -55.2098 -6.63534 103.005
lradius 117.382
lwrist 75.527
lhand -26.0041 11.4584
lfingers 7.12502
lthumb 0.541744 41.4375
rfemur -2.30484 25.0168 25.8059
rtibia 1.45676
rfoot -13.9798 -27.2792
rtoes 1.53864
lfemur 9.54664 -48.8849 -14.56
ltibia -4.72585
lfoot -31.8517 56.1417
ltoes 13.7686
1642
root 0.808767 17.423 9.86488 11.2493 -2.82619 -9.53129
lowerback 0.0363414 2.0729 3.91991
upperback -9.90976 3.31634 3.2728
thorax -10.5588 1.45973 1.01827
lowerneck -9.84035 -3.16534 -1.09974
upperneck 21.3511 -3.88698 -1.47185
head 8.22723 -2.08004 -0.691996
rclavicle -6.83322e-016 1.33186e-014
rhumerus -35.5153 49.6645 -113.789
rradius 100.326
rwrist 29.0636
rhand -7.24284 -33.4525
rfingers 7.12502
rthumb 18.6373 -782.58
lclavicle -6.83322e-016 1.33186e-014
lhumerus -55.1854 -6.55246 103.012
lradius 117.236
lwrist 75.5484
lhand -25.8721 11.2092
lfingers 7.12502
lthumb 0.669253 41.1879
rfemur -2.97598 24.5284 25.3184
rtibia 1.80325
rfoot -13.7677 -26.4426
rtoes 0.953387
lfemur 9.29262 -48.9987 -14.6898
ltibia -4.57936
lfoot -32.9617 56.3566
ltoes 14.75
1643
root 0.807576 17.4199 9.86686 11.1531 -2.91545 -9.34665
lowerback -0.132837 2.04755 4.04542
upperback -9.78565 3.27706 3.36995
thorax -10.3165 1.43878 1.06206
lowerneck -9.89933 -2.80114 -0.581884
upperneck 21.6622 -3.03724 -3.43363
head 8.30147 -1.83138 -1.35248
rclavicle 3.23646e-015 -5.75606e-014
rhumerus -35.4293 49.8163 -113.624
rradius 100.096
rwrist 29.4548
rhand -7.4195 -33.173
rfingers 7.12502
rthumb 18.4673 -782.316
lclavicle 3.23646e-015 -5.75606e-014
lhumerus -55.1137 -6.52562 103.039
lradius 117.167
lwrist 75.7791
lhand -25.9869 11.2461
lfingers 7.12502
lthumb 0.558389 41.2251
rfemur -2.9002 24.4661 25.1336
rtibia 1.84616
rfoot -13.7659 -26.3582
rtoes 0.766868
lfemur 9.4217 -48.8118 -15.0084
ltibia -4.56269
lfoot -32.8583 56.2398
ltoes 14.6846
1644
root 0.806436 17.4177 9.86864 11.0327 -2.99751 -9.30426
lowerback -0.181325 2.04145 4.3633
upperback -9.71789 3.28613 3.47462
thorax -10.2033 1.42305 0.999127
lowerneck -9.91326 -2.44696 -0.168258
upperneck 21.9431 -2.22333 -5.17411
head 8.3836 -1.58852 -1.92947
rclavicle 3.4601e-014 4.35835e-014
rhumerus -35.4387 49.9221 -113.567
rradius 99.9088
rwrist 29.597
rhand -7.53385 -33.0671
rfingers 7.12502
rthumb 18.3573 -782.221
lclavicle 3.4601e-014 4.35835e-014
lhumerus -55.1919 -6.53695 103.061
lradius 117.16
lwrist 75.975
lhand -26.1434 11.3825
lfingers 7.12502
lthumb 0.407269 41.3619
rfemur -2.77907 24.4294 25.1401
rtibia 1.86839
rfoot -13.724 -26.2427
rtoes 0.459351
lfemur 9.60838 -48.5661 -15.1733
ltibia -4.60719
lfoot -32.6152 56.1303
ltoes 14.4529
1645
root 0.804812 17.4152 9.86909 10.9661 -3.08894 -9.36378
lowerback -0.200883 2.04587 4.8525
upperback -9.71988 3.3213 3.54236
thorax -10.1768 1.4017 0.79922
lowerneck -9.78912 -2.10149 0.291205
upperneck 22.1536 -1.46519 -6.7481
head 8.4339 -1.35083 -2.46501
rclavicle 1.79652e-014 -1.799e-014
rhumerus -35.5563 49.9998 -113.694
rradius 99.8709
rwrist 29.502
rhand -7.33835 -33.0663
rfingers 7.12502
rthumb 18.5454 -782.202
lclavicle 1.79652e-014 -1.799e-014
lhumerus -55.341 -6.55655 102.977
lradius 117.128
lwrist 76.0914
lhand -26.1665 11.3824
lfingers 7.12502
lthumb 0.38498 41.3618
rfemur -2.72348 24.4562 25.2528
rtibia 1.9284
rfoot -13.7038 -26.1905
rtoes 0.30447
lfemur 9.74447 -48.3326 -15.1685
ltibia -4.68338
lfoot -32.2895 56.0791
ltoes 14.1756
